<?xml version="1.0" standalone="no"?>
<svg xmlns="http://www.w3.org/2000/svg" viewBox="0 0 91 59" width="91" height="59"><g fill="#565152" color="#565152" transform="translate(23.24 0) scale(0.1329306) "><svg width="331.0" height="262.0" x="0.0" y="0.0" viewBox="0 0 331 262"><defs><style type="text/css">
   
    .fil1 {fill:currentColor}
    .fil0 {fill:currentColor;fill-rule:nonzero}
   
  </style></defs><g><path class="fil0" d="M87 79c-3,2 -8,1 -10,-3 -2,-4 -1,-10 2,-12l83 -63c2,-2 5,-1 8,0l82 63c4,2 5,8 3,12 -3,4 -7,5 -11,3l-78 -60 -79 60z"></path><path class="fil0" d="M12 169c-4,3 -9,1 -11,-3 -2,-4 -1,-9 2,-12l83 -62c3,-2 6,-2 8,0l72 54 71 -54c3,-2 6,-2 8,0l83 62c3,3 4,8 2,12 -2,4 -7,6 -10,3l-79 -59c-25,19 -50,38 -75,57l-76 -57 -78 59z"></path><path class="fil1" d="M310 174l0 77c0,6 -5,11 -11,11l-33 0 0 -59c0,-5 -5,-10 -11,-10l-28 0c-6,0 -11,5 -11,10l0 59 -32 0c-7,0 -12,-5 -12,-11l0 -77 69 -53 69 53zm-74 -15l10 0c3,0 4,1 4,4l0 10c0,2 -1,4 -4,4l-10 0c-2,0 -4,-2 -4,-4l0 -10c0,-3 2,-4 4,-4z"></path><path class="fil1" d="M159 174l0 77c0,6 -5,11 -11,11l-33 0 0 -59c0,-5 -5,-10 -11,-10l-28 0c-6,0 -11,5 -11,10l0 59 -33 0c-6,0 -11,-5 -11,-11l0 -77 69 -53 69 53zm-74 -15l10 0c3,0 4,1 4,4l0 10c0,2 -1,4 -4,4l-10 0c-2,0 -4,-2 -4,-4l0 -10c0,-3 2,-4 4,-4z"></path><path class="fil1" d="M166 32l67 50 -67 51 -67 -51 67 -50zm-17 30l10 0c3,0 4,1 4,3l0 11c0,2 -1,4 -4,4l-10 0c-2,0 -4,-2 -4,-4l0 -11c0,-2 2,-3 4,-3zm23 0l11 0c2,0 4,1 4,3l0 11c0,2 -2,4 -4,4l-11 0c-2,0 -4,-2 -4,-4l0 -11c0,-2 2,-3 4,-3zm-23 22l10 0c3,0 4,2 4,4l0 11c0,2 -1,4 -4,4l-10 0c-2,0 -4,-2 -4,-4l0 -11c0,-2 2,-4 4,-4zm23 0l11 0c2,0 4,2 4,4l0 11c0,2 -2,4 -4,4l-11 0c-2,0 -4,-2 -4,-4l0 -11c0,-2 2,-4 4,-4z"></path><polygon class="fil1" points="203,0 222,0 222,32 203,18 "></polygon><path class="fil1" d="M77 198l26 0c4,0 7,3 7,7l0 57 -40 0 0 -57c0,-4 4,-7 7,-7z"></path><path class="fil1" d="M228 198l26 0c4,0 7,3 7,7l0 57 -40 0 0 -57c0,-4 4,-7 7,-7z"></path></g></svg></g><path fill="#2b2be1" fill-rule="nonzero" d="M6.98 7.13L7.06 6.22Q7.58 6.17 7.78 6.17Q7.97 6.17 8.40 6.24L8.40 6.24Q8.38 6.96 8.38 8.06Q8.38 9.17 8.40 9.70L8.40 9.70Q8.04 9.77 7.70 9.77Q7.37 9.77 7.06 9.72L7.06 9.72L6.98 8.88Q5.69 8.83 4.99 8.83Q4.30 8.83 2.95 8.88L2.95 8.88Q3.00 12.53 3.17 14.33L3.17 14.33L4.49 14.42L4.54 15Q4.54 15.38 4.46 15.74L4.46 15.74Q3.84 15.72 2.22 15.72Q0.60 15.72 0.10 15.74L0.10 15.74Q0.02 15.38 0.02 15.06Q0.02 14.74 0.07 14.40L0.07 14.40L0.96 14.33Q1.15 11.98 1.15 8.28Q1.15 4.58 0.86 1.78L0.86 1.78L0.05 1.70Q0 1.39 0 1.06Q0 0.72 0.07 0.36L0.07 0.36Q0.67 0.38 4.34 0.38Q8.02 0.38 9.10 0.17L9.10 0.17L9.22 0.29Q9.02 2.40 9 3.70L9 3.70Q8.76 3.72 8.40 3.72Q8.04 3.72 7.66 3.65L7.66 3.65L7.58 2.02Q6.36 1.94 5.20 1.94Q4.03 1.94 3.10 2.02L3.10 2.02Q2.95 3.60 2.95 7.22L2.95 7.22L4.13 7.22Q5.45 7.22 6.98 7.13L6.98 7.13ZM15.70 1.63L14.78 1.70Q14.62 3.65 14.62 7.73Q14.62 11.81 14.83 14.33L14.83 14.33L15.70 14.40Q15.74 14.78 15.74 15.06Q15.74 15.34 15.67 15.74L15.67 15.74Q14.83 15.72 13.73 15.72Q12.62 15.72 11.81 15.74L11.81 15.74Q11.74 15.38 11.74 15.11Q11.74 14.83 11.78 14.40L11.78 14.40L12.62 14.33Q12.82 11.74 12.82 7.72Q12.82 3.70 12.60 1.70L12.60 1.70L11.78 1.63Q11.74 1.25 11.74 0.97Q11.74 0.70 11.81 0.29L11.81 0.29Q12.65 0.31 13.75 0.31Q14.86 0.31 15.67 0.29L15.67 0.29Q15.74 0.65 15.74 0.92Q15.74 1.20 15.70 1.63L15.70 1.63ZM21.17 14.33L22.06 14.40Q22.10 14.59 22.10 14.96Q22.10 15.34 22.03 15.74L22.03 15.74Q21.17 15.72 19.94 15.72Q18.72 15.72 17.98 15.74L17.98 15.74Q17.90 15.38 17.90 15.13Q17.90 14.88 17.95 14.40L17.95 14.40L18.77 14.33Q21.36 10.56 22.90 7.78L22.90 7.78Q21.24 4.90 19.15 1.70L19.15 1.70L18.29 1.63Q18.24 1.25 18.24 0.97Q18.24 0.70 18.31 0.29L18.31 0.29Q19.15 0.31 20.46 0.31Q21.77 0.31 22.68 0.29L22.68 0.29Q22.75 0.65 22.75 0.92Q22.75 1.20 22.70 1.63L22.70 1.63L21.84 1.70Q22.94 3.86 24.24 6.24L24.24 6.24Q25.39 4.42 26.47 1.70L26.47 1.70L25.58 1.63Q25.54 1.44 25.54 1.07Q25.54 0.70 25.61 0.29L25.61 0.29Q26.47 0.31 27.70 0.31Q28.92 0.31 29.66 0.29L29.66 0.29Q29.74 0.65 29.74 0.90Q29.74 1.15 29.69 1.63L29.69 1.63L28.82 1.70Q26.64 4.92 25.08 7.75L25.08 7.75Q26.98 11.09 29.14 14.33L29.14 14.33L30.02 14.40Q30.07 14.78 30.07 15.06Q30.07 15.34 30 15.74L30 15.74Q29.16 15.72 27.85 15.72Q26.54 15.72 25.63 15.74L25.63 15.74Q25.56 15.38 25.56 15.11Q25.56 14.83 25.61 14.40L25.61 14.40L26.45 14.33Q25.18 11.83 23.78 9.36L23.78 9.36Q22.13 12.10 21.17 14.33L21.17 14.33ZM35.09 14.33L35.95 14.40Q36 14.78 36 15.06Q36 15.34 35.93 15.74L35.93 15.74Q35.09 15.72 33.98 15.72Q32.88 15.72 32.06 15.74L32.06 15.74Q31.99 15.38 31.99 15.11Q31.99 14.83 32.04 14.40L32.04 14.40L32.88 14.33Q33.07 11.74 33.07 7.72Q33.07 3.70 32.86 1.70L32.86 1.70L32.04 1.63Q31.99 1.25 31.99 0.97Q31.99 0.70 32.06 0.29L32.06 0.29Q32.90 0.31 34.01 0.31Q35.11 0.31 35.93 0.29L35.93 0.29Q36 0.65 36 0.92Q36 1.20 35.95 1.63L35.95 1.63L35.04 1.70Q34.87 3.82 34.87 7.10L34.87 7.10Q36.17 7.25 37.99 7.25Q39.82 7.25 41.47 7.06L41.47 7.06Q41.42 3.24 41.26 1.70L41.26 1.70L40.44 1.63Q40.39 1.25 40.39 0.97Q40.39 0.70 40.46 0.29L40.46 0.29Q41.30 0.31 42.41 0.31Q43.51 0.31 44.33 0.29L44.33 0.29Q44.40 0.65 44.40 0.92Q44.40 1.20 44.35 1.63L44.35 1.63L43.44 1.70Q43.27 3.65 43.27 7.73Q43.27 11.81 43.49 14.33L43.49 14.33L44.35 14.40Q44.40 14.78 44.40 15.06Q44.40 15.34 44.33 15.74L44.33 15.74Q43.49 15.72 42.38 15.72Q41.28 15.72 40.46 15.74L40.46 15.74Q40.39 15.38 40.39 15.11Q40.39 14.83 40.44 14.40L40.44 14.40L41.28 14.33Q41.42 12.24 41.47 8.98L41.47 8.98Q39.94 8.81 37.99 8.81Q36.05 8.81 34.87 8.98L34.87 8.98Q34.92 12.38 35.09 14.33L35.09 14.33ZM47.28 7.87L47.28 7.87Q47.28 0 53.17 0Q59.06 0 59.06 7.87L59.06 7.87Q59.06 9.31 58.96 10.39Q58.85 11.47 58.48 12.60Q58.10 13.73 57.48 14.45Q56.86 15.17 55.76 15.62Q54.67 16.08 53.17 16.08Q51.67 16.08 50.58 15.62Q49.49 15.17 48.86 14.45Q48.24 13.73 47.87 12.60Q47.50 11.47 47.39 10.39Q47.28 9.31 47.28 7.87ZM51.14 13.78L51.14 13.78Q51.96 14.30 53.17 14.30Q54.38 14.30 55.21 13.78Q56.04 13.25 56.45 12.26L56.45 12.26Q57.17 10.56 57.17 7.90L57.17 7.90Q57.17 1.42 53.17 1.42Q49.18 1.42 49.18 7.90L49.18 7.90Q49.18 12.53 51.14 13.78ZM77.54 0.41Q77.57 0.60 77.57 1.01Q77.57 1.42 77.50 1.75L77.50 1.75L76.58 1.82Q76.56 2.50 76.56 3.82L76.56 3.82Q76.56 9.70 77.09 14.33L77.09 14.33L77.98 14.40Q78.02 14.78 78.02 15.06Q78.02 15.34 77.95 15.74L77.95 15.74Q77.11 15.72 76.01 15.72Q74.90 15.72 74.09 15.74L74.09 15.74Q74.02 15.38 74.02 15.11Q74.02 14.83 74.06 14.40L74.06 14.40L74.86 14.33Q74.90 12.60 74.90 10.38Q74.90 8.16 74.69 4.20L74.69 4.20Q74.45 4.70 73.49 6.65L73.49 6.65Q71.35 10.90 70.56 12.91L70.56 12.91Q70.08 13.10 69.54 13.10Q69 13.10 68.81 13.08L68.81 13.08Q67.97 11.06 66.42 8.20Q64.87 5.33 64.58 4.80L64.58 4.80Q64.39 8.21 64.39 10.57Q64.39 12.94 64.44 14.33L64.44 14.33L65.33 14.40Q65.38 14.78 65.38 15.06Q65.38 15.34 65.30 15.74L65.30 15.74Q64.54 15.72 63.53 15.72Q62.52 15.72 61.78 15.74L61.78 15.74Q61.70 15.38 61.70 15.11Q61.70 14.83 61.75 14.40L61.75 14.40L62.59 14.33Q63.10 9.96 63.10 3.98L63.10 3.98Q63.10 2.83 63.02 1.82L63.02 1.82L62.14 1.75Q62.06 1.42 62.06 1.01Q62.06 0.60 62.09 0.41L62.09 0.41Q64.06 0.36 65.06 0.29L65.06 0.29Q65.47 2.50 69.91 10.68L69.91 10.68Q73.58 3.50 74.21 0.29L74.21 0.29Q75.10 0.36 77.54 0.41L77.54 0.41ZM88.13 6.89L88.20 5.98Q88.73 5.93 88.92 5.93Q89.11 5.93 89.54 6L89.54 6Q89.52 6.74 89.52 7.92Q89.52 9.10 89.54 9.46L89.54 9.46Q89.18 9.53 88.85 9.53Q88.51 9.53 88.20 9.48L88.20 9.48L88.13 8.64Q86.83 8.59 85.99 8.59Q85.15 8.59 83.86 8.64L83.86 8.64Q83.86 11.78 84.02 13.90L84.02 13.90Q84.86 13.97 86.41 13.97Q87.96 13.97 88.85 13.85L88.85 13.85L88.92 12.22Q89.33 12.14 89.68 12.14Q90.02 12.14 90.26 12.17L90.26 12.17Q90.29 14.04 90.48 15.72L90.48 15.72L90.36 15.84Q89.18 15.72 85.21 15.72Q81.24 15.72 81.02 15.74L81.02 15.74Q80.95 15.38 80.95 15.06Q80.95 14.74 81 14.40L81 14.40L81.84 14.33Q82.06 10.61 82.06 7.60Q82.06 4.58 81.77 1.78L81.77 1.78L80.95 1.70Q80.90 1.39 80.90 1.06Q80.90 0.72 80.98 0.36L80.98 0.36Q81.58 0.38 85.37 0.38Q89.16 0.38 90.24 0.17L90.24 0.17L90.36 0.29Q90.17 2.40 90.14 3.70L90.14 3.70Q89.90 3.72 89.54 3.72Q89.18 3.72 88.80 3.65L88.80 3.65L88.73 2.02Q87.50 1.94 86.18 1.94Q84.86 1.94 84 2.02L84 2.02Q83.86 3.53 83.86 6.96L83.86 6.96Q84.24 6.98 85.42 6.98Q86.59 6.98 88.13 6.89L88.13 6.89Z" transform="translate(0, 42.828)"></path></svg>